ISO-10303-21;
HEADER;
/* Generated by software containing ST-Developer
 * from STEP Tools, Inc. (www.steptools.com) 
 */

FILE_DESCRIPTION(
/* description */ (''),
/* implementation_level */ '2;1');

FILE_NAME(
/* name */ 'UF7319.stp',
/* time_stamp */ '2026-08-10T11:52:31+03:00',
/* author */ ('harel'),
/* organization */ (''),
/* preprocessor_version */ 'ST-DEVELOPER v20',
/* originating_system */ 'Autodesk Inventor 2025',
/* authorisation */ '');

FILE_SCHEMA (('AUTOMOTIVE_DESIGN { 1 0 10303 214 3 1 1 }'));
ENDSEC;

DATA;
#10=MECHANICAL_DESIGN_GEOMETRIC_PRESENTATION_REPRESENTATION('',(#47,#48,
#49,#50,#51),#974);
#11=CONTEXT_DEPENDENT_OVER_RIDING_STYLED_ITEM('',(#1023),#997,#51,(#22));
#12=CONTEXT_DEPENDENT_OVER_RIDING_STYLED_ITEM('',(#1022),#994,#51,(#19));
#13=MAPPED_ITEM('',#14,#605);
#14=REPRESENTATION_MAP(#605,#993);
#15=ITEM_DEFINED_TRANSFORMATION($,$,#533,#601);
#16=ITEM_DEFINED_TRANSFORMATION($,$,#554,#602);
#17=ITEM_DEFINED_TRANSFORMATION($,$,#563,#603);
#18=ITEM_DEFINED_TRANSFORMATION($,$,#592,#604);
#19=(
REPRESENTATION_RELATIONSHIP($,$,#994,#993)
REPRESENTATION_RELATIONSHIP_WITH_TRANSFORMATION(#15)
SHAPE_REPRESENTATION_RELATIONSHIP()
);
#20=(
REPRESENTATION_RELATIONSHIP($,$,#995,#993)
REPRESENTATION_RELATIONSHIP_WITH_TRANSFORMATION(#16)
SHAPE_REPRESENTATION_RELATIONSHIP()
);
#21=(
REPRESENTATION_RELATIONSHIP($,$,#996,#993)
REPRESENTATION_RELATIONSHIP_WITH_TRANSFORMATION(#17)
SHAPE_REPRESENTATION_RELATIONSHIP()
);
#22=(
REPRESENTATION_RELATIONSHIP($,$,#997,#993)
REPRESENTATION_RELATIONSHIP_WITH_TRANSFORMATION(#18)
SHAPE_REPRESENTATION_RELATIONSHIP()
);
#23=CONTEXT_DEPENDENT_SHAPE_REPRESENTATION(#19,#989);
#24=CONTEXT_DEPENDENT_SHAPE_REPRESENTATION(#20,#990);
#25=CONTEXT_DEPENDENT_SHAPE_REPRESENTATION(#21,#991);
#26=CONTEXT_DEPENDENT_SHAPE_REPRESENTATION(#22,#992);
#27=NEXT_ASSEMBLY_USAGE_OCCURRENCE('Shank:1','Shank:1','Shank:1',#999,#1000,
'Shank:1');
#28=NEXT_ASSEMBLY_USAGE_OCCURRENCE('disk19:1','disk19:1','disk19:1',#999,
#1001,'disk19:1');
#29=NEXT_ASSEMBLY_USAGE_OCCURRENCE('CNS 9671 M1.4 x 4:1',
'CNS 9671 M1.4 x 4:1','CNS 9671 M1.4 x 4:1',#999,#1002,
'CNS 9671 M1.4 x 4:1');
#30=NEXT_ASSEMBLY_USAGE_OCCURRENCE('ISO 7091 ST 1.6 - 100 HV:1',
'ISO 7091 ST 1.6 - 100 HV:1','ISO 7091 ST 1.6 - 100 HV:1',#999,#1003,
'ISO 7091 ST 1.6 - 100 HV:1');
#31=SPHERICAL_SURFACE('',#583,19.1092737753302);
#32=SPHERICAL_SURFACE('',#584,19.1092737753302);
#33=(
BOUNDED_CURVE()
B_SPLINE_CURVE(2,(#923,#924,#925),.UNSPECIFIED.,.F.,.F.)
B_SPLINE_CURVE_WITH_KNOTS((3,3),(0.000174532925199425,0.360309807720451),
 .UNSPECIFIED.)
CURVE()
GEOMETRIC_REPRESENTATION_ITEM()
RATIONAL_B_SPLINE_CURVE((1.,0.933698845495081,0.898233990079849))
REPRESENTATION_ITEM('')
);
#34=(
BOUNDED_SURFACE()
B_SPLINE_SURFACE(2,2,((#892,#893,#894,#895,#896,#897,#898,#899,#900),(#901,
#902,#903,#904,#905,#906,#907,#908,#909),(#910,#911,#912,#913,#914,#915,
#916,#917,#918)),.UNSPECIFIED.,.F.,.T.,.F.)
B_SPLINE_SURFACE_WITH_KNOTS((3,3),(3,2,2,2,3),(-1.54882889170049,-0.000174532925199425),
(-3.14159265358979,-1.5707963267949,0.,1.5707963267949,3.14159265358979),
 .UNSPECIFIED.)
GEOMETRIC_REPRESENTATION_ITEM()
RATIONAL_B_SPLINE_SURFACE(((1.,0.707106781186548,1.,0.707106781186548,1.,
0.707106781186548,1.,0.707106781186548,1.),(0.714891655713945,0.505504737569009,
0.714891655713945,0.505504737569009,0.714891655713945,0.505504737569009,
0.714891655713945,0.505504737569009,0.714891655713945),(1.,0.707106781186548,
1.,0.707106781186548,1.,0.707106781186548,1.,0.707106781186548,1.)))
REPRESENTATION_ITEM('')
SURFACE()
);
#35=B_SPLINE_CURVE_WITH_KNOTS('',3,(#836,#837,#838,#839,#840,#841,#842,
#843,#844,#845),.UNSPECIFIED.,.F.,.F.,(4,2,2,2,4),(-0.140700614535353,-0.136727443124435,
-0.103498723889951,-0.0699129091852722,-0.0366725111045028),
 .UNSPECIFIED.);
#36=B_SPLINE_CURVE_WITH_KNOTS('',3,(#849,#850,#851,#852,#853,#854,#855,
#856,#857,#858),.UNSPECIFIED.,.F.,.F.,(4,2,2,2,4),(0.0366725111045028,0.0699129091852722,
0.103498723889951,0.136727443124435,0.140700614535353),.UNSPECIFIED.);
#37=B_SPLINE_CURVE_WITH_KNOTS('',3,(#870,#871,#872,#873,#874,#875,#876,
#877,#878,#879),.UNSPECIFIED.,.F.,.F.,(4,2,2,2,4),(0.0366725111045028,0.0699129091852721,
0.103498723889951,0.136727443124435,0.140700614535353),.UNSPECIFIED.);
#38=B_SPLINE_CURVE_WITH_KNOTS('',3,(#882,#883,#884,#885,#886,#887,#888,
#889,#890,#891),.UNSPECIFIED.,.F.,.F.,(4,2,2,2,4),(-0.140700614535352,-0.136727443124435,
-0.103498723889951,-0.069912909185272,-0.0366725111045027),
 .UNSPECIFIED.);
#39=SHAPE_REPRESENTATION_RELATIONSHIP('SRR','None',#994,#43);
#40=SHAPE_REPRESENTATION_RELATIONSHIP('SRR','None',#995,#44);
#41=SHAPE_REPRESENTATION_RELATIONSHIP('SRR','None',#996,#45);
#42=SHAPE_REPRESENTATION_RELATIONSHIP('SRR','None',#997,#46);
#43=ADVANCED_BREP_SHAPE_REPRESENTATION('',(#52),#970);
#44=ADVANCED_BREP_SHAPE_REPRESENTATION('',(#53),#971);
#45=ADVANCED_BREP_SHAPE_REPRESENTATION('',(#54),#972);
#46=ADVANCED_BREP_SHAPE_REPRESENTATION('',(#55),#973);
#47=STYLED_ITEM('',(#1022),#52);
#48=STYLED_ITEM('',(#1024),#53);
#49=STYLED_ITEM('',(#1025),#54);
#50=STYLED_ITEM('',(#1026),#55);
#51=STYLED_ITEM('',(#1027),#13);
#52=MANIFOLD_SOLID_BREP('Solid1',#450);
#53=MANIFOLD_SOLID_BREP('Solid1',#451);
#54=MANIFOLD_SOLID_BREP('Solid1',#452);
#55=MANIFOLD_SOLID_BREP('Solid1',#453);
#56=FACE_BOUND('',#124,.T.);
#57=FACE_BOUND('',#126,.T.);
#58=FACE_BOUND('',#130,.T.);
#59=FACE_BOUND('',#142,.T.);
#60=FACE_BOUND('',#148,.T.);
#61=FACE_BOUND('',#150,.T.);
#62=TOROIDAL_SURFACE('',#545,1.55,0.2);
#63=TOROIDAL_SURFACE('',#551,1.7,0.2);
#64=PLANE('',#540);
#65=PLANE('',#544);
#66=PLANE('',#553);
#67=PLANE('',#555);
#68=PLANE('',#562);
#69=PLANE('',#570);
#70=PLANE('',#571);
#71=PLANE('',#573);
#72=PLANE('',#577);
#73=PLANE('',#587);
#74=PLANE('',#599);
#75=PLANE('',#600);
#76=CYLINDRICAL_SURFACE('',#538,1.5);
#77=CYLINDRICAL_SURFACE('',#541,0.5917468);
#78=CYLINDRICAL_SURFACE('',#549,1.75);
#79=CYLINDRICAL_SURFACE('',#558,0.8);
#80=CYLINDRICAL_SURFACE('',#560,9.5);
#81=CYLINDRICAL_SURFACE('',#568,0.699999999999998);
#82=CYLINDRICAL_SURFACE('',#589,0.608);
#83=CYLINDRICAL_SURFACE('',#593,0.9);
#84=CYLINDRICAL_SURFACE('',#596,2.);
#85=FACE_OUTER_BOUND('',#115,.T.);
#86=FACE_OUTER_BOUND('',#116,.T.);
#87=FACE_OUTER_BOUND('',#117,.T.);
#88=FACE_OUTER_BOUND('',#118,.T.);
#89=FACE_OUTER_BOUND('',#119,.T.);
#90=FACE_OUTER_BOUND('',#120,.T.);
#91=FACE_OUTER_BOUND('',#121,.T.);
#92=FACE_OUTER_BOUND('',#122,.T.);
#93=FACE_OUTER_BOUND('',#123,.T.);
#94=FACE_OUTER_BOUND('',#125,.T.);
#95=FACE_OUTER_BOUND('',#127,.T.);
#96=FACE_OUTER_BOUND('',#128,.T.);
#97=FACE_OUTER_BOUND('',#129,.T.);
#98=FACE_OUTER_BOUND('',#131,.T.);
#99=FACE_OUTER_BOUND('',#132,.T.);
#100=FACE_OUTER_BOUND('',#133,.T.);
#101=FACE_OUTER_BOUND('',#134,.T.);
#102=FACE_OUTER_BOUND('',#135,.T.);
#103=FACE_OUTER_BOUND('',#136,.T.);
#104=FACE_OUTER_BOUND('',#137,.T.);
#105=FACE_OUTER_BOUND('',#138,.T.);
#106=FACE_OUTER_BOUND('',#139,.T.);
#107=FACE_OUTER_BOUND('',#140,.T.);
#108=FACE_OUTER_BOUND('',#141,.T.);
#109=FACE_OUTER_BOUND('',#143,.T.);
#110=FACE_OUTER_BOUND('',#144,.T.);
#111=FACE_OUTER_BOUND('',#145,.T.);
#112=FACE_OUTER_BOUND('',#146,.T.);
#113=FACE_OUTER_BOUND('',#147,.T.);
#114=FACE_OUTER_BOUND('',#149,.T.);
#115=EDGE_LOOP('',(#306,#307,#308,#309,#310));
#116=EDGE_LOOP('',(#311,#312,#313,#314,#315));
#117=EDGE_LOOP('',(#316));
#118=EDGE_LOOP('',(#317,#318,#319,#320));
#119=EDGE_LOOP('',(#321));
#120=EDGE_LOOP('',(#322,#323,#324,#325));
#121=EDGE_LOOP('',(#326,#327,#328,#329));
#122=EDGE_LOOP('',(#330,#331,#332,#333));
#123=EDGE_LOOP('',(#334));
#124=EDGE_LOOP('',(#335));
#125=EDGE_LOOP('',(#336));
#126=EDGE_LOOP('',(#337));
#127=EDGE_LOOP('',(#338,#339,#340,#341));
#128=EDGE_LOOP('',(#342,#343,#344,#345));
#129=EDGE_LOOP('',(#346));
#130=EDGE_LOOP('',(#347));
#131=EDGE_LOOP('',(#348,#349,#350,#351,#352));
#132=EDGE_LOOP('',(#353,#354,#355,#356,#357));
#133=EDGE_LOOP('',(#358));
#134=EDGE_LOOP('',(#359,#360,#361,#362));
#135=EDGE_LOOP('',(#363,#364,#365,#366,#367));
#136=EDGE_LOOP('',(#368,#369,#370,#371));
#137=EDGE_LOOP('',(#372,#373,#374,#375,#376,#377,#378,#379,#380,#381,#382,
#383,#384));
#138=EDGE_LOOP('',(#385,#386));
#139=EDGE_LOOP('',(#387,#388));
#140=EDGE_LOOP('',(#389,#390,#391,#392,#393));
#141=EDGE_LOOP('',(#394));
#142=EDGE_LOOP('',(#395));
#143=EDGE_LOOP('',(#396,#397,#398,#399));
#144=EDGE_LOOP('',(#400,#401,#402,#403));
#145=EDGE_LOOP('',(#404,#405,#406,#407));
#146=EDGE_LOOP('',(#408,#409,#410,#411));
#147=EDGE_LOOP('',(#412));
#148=EDGE_LOOP('',(#413));
#149=EDGE_LOOP('',(#414));
#150=EDGE_LOOP('',(#415));
#151=LINE('',#777,#166);
#152=LINE('',#782,#167);
#153=LINE('',#788,#168);
#154=LINE('',#800,#169);
#155=LINE('',#813,#170);
#156=LINE('',#817,#171);
#157=LINE('',#824,#172);
#158=LINE('',#830,#173);
#159=LINE('',#847,#174);
#160=LINE('',#865,#175);
#161=LINE('',#933,#176);
#162=LINE('',#940,#177);
#163=LINE('',#942,#178);
#164=LINE('',#948,#179);
#165=LINE('',#954,#180);
#166=VECTOR('',#616,1.25);
#167=VECTOR('',#623,1.5);
#168=VECTOR('',#630,0.5917468);
#169=VECTOR('',#647,1.75);
#170=VECTOR('',#666,0.8);
#171=VECTOR('',#671,9.5);
#172=VECTOR('',#680,0.607982499999998);
#173=VECTOR('',#687,0.699999999999998);
#174=VECTOR('',#694,10.);
#175=VECTOR('',#701,10.);
#176=VECTOR('',#726,1.29991438018687);
#177=VECTOR('',#735,0.608);
#178=VECTOR('',#738,0.653999999999999);
#179=VECTOR('',#745,0.9);
#180=VECTOR('',#752,2.);
#181=CIRCLE('',#535,1.5);
#182=CIRCLE('',#536,1.5);
#183=CIRCLE('',#537,1.);
#184=CIRCLE('',#539,1.5);
#185=CIRCLE('',#542,0.5917468);
#186=CIRCLE('',#543,0.5917468);
#187=CIRCLE('',#546,1.625);
#188=CIRCLE('',#547,0.2);
#189=CIRCLE('',#548,1.75);
#190=CIRCLE('',#550,1.75);
#191=CIRCLE('',#552,0.2);
#192=CIRCLE('',#556,9.5);
#193=CIRCLE('',#557,0.8);
#194=CIRCLE('',#559,0.8);
#195=CIRCLE('',#561,9.5);
#196=CIRCLE('',#565,0.515964999999998);
#197=CIRCLE('',#566,0.699999999999998);
#198=CIRCLE('',#567,0.699999999999998);
#199=CIRCLE('',#569,0.699999999999998);
#200=CIRCLE('',#572,19.1086039317508);
#201=CIRCLE('',#574,1.24694087397516);
#202=CIRCLE('',#575,1.24694087397516);
#203=CIRCLE('',#576,1.24694087397516);
#204=CIRCLE('',#578,19.1086039317508);
#205=CIRCLE('',#579,1.29997885474283);
#206=CIRCLE('',#580,1.29997885474283);
#207=CIRCLE('',#581,0.419747969956081);
#208=CIRCLE('',#582,0.419747969956081);
#209=CIRCLE('',#586,1.3);
#210=CIRCLE('',#588,0.608);
#211=CIRCLE('',#590,0.608);
#212=CIRCLE('',#594,0.9);
#213=CIRCLE('',#595,0.9);
#214=CIRCLE('',#597,2.);
#215=CIRCLE('',#598,2.);
#216=VERTEX_POINT('',#772);
#217=VERTEX_POINT('',#773);
#218=VERTEX_POINT('',#776);
#219=VERTEX_POINT('',#780);
#220=VERTEX_POINT('',#785);
#221=VERTEX_POINT('',#787);
#222=VERTEX_POINT('',#792);
#223=VERTEX_POINT('',#794);
#224=VERTEX_POINT('',#798);
#225=VERTEX_POINT('',#806);
#226=VERTEX_POINT('',#808);
#227=VERTEX_POINT('',#811);
#228=VERTEX_POINT('',#815);
#229=VERTEX_POINT('',#821);
#230=VERTEX_POINT('',#823);
#231=VERTEX_POINT('',#825);
#232=VERTEX_POINT('',#829);
#233=VERTEX_POINT('',#834);
#234=VERTEX_POINT('',#835);
#235=VERTEX_POINT('',#846);
#236=VERTEX_POINT('',#848);
#237=VERTEX_POINT('',#861);
#238=VERTEX_POINT('',#862);
#239=VERTEX_POINT('',#864);
#240=VERTEX_POINT('',#869);
#241=VERTEX_POINT('',#880);
#242=VERTEX_POINT('',#919);
#243=VERTEX_POINT('',#920);
#244=VERTEX_POINT('',#931);
#245=VERTEX_POINT('',#935);
#246=VERTEX_POINT('',#938);
#247=VERTEX_POINT('',#945);
#248=VERTEX_POINT('',#947);
#249=VERTEX_POINT('',#951);
#250=VERTEX_POINT('',#953);
#251=EDGE_CURVE('',#216,#217,#181,.T.);
#252=EDGE_CURVE('',#217,#216,#182,.T.);
#253=EDGE_CURVE('',#216,#218,#151,.T.);
#254=EDGE_CURVE('',#218,#218,#183,.T.);
#255=EDGE_CURVE('',#219,#219,#184,.T.);
#256=EDGE_CURVE('',#219,#217,#152,.T.);
#257=EDGE_CURVE('',#220,#220,#185,.T.);
#258=EDGE_CURVE('',#220,#221,#153,.T.);
#259=EDGE_CURVE('',#221,#221,#186,.T.);
#260=EDGE_CURVE('',#222,#222,#187,.T.);
#261=EDGE_CURVE('',#222,#223,#188,.T.);
#262=EDGE_CURVE('',#223,#223,#189,.T.);
#263=EDGE_CURVE('',#224,#224,#190,.T.);
#264=EDGE_CURVE('',#224,#223,#154,.T.);
#265=EDGE_CURVE('',#219,#222,#191,.T.);
#266=EDGE_CURVE('',#225,#225,#192,.T.);
#267=EDGE_CURVE('',#226,#226,#193,.T.);
#268=EDGE_CURVE('',#227,#227,#194,.T.);
#269=EDGE_CURVE('',#227,#226,#155,.T.);
#270=EDGE_CURVE('',#228,#228,#195,.T.);
#271=EDGE_CURVE('',#228,#225,#156,.T.);
#272=EDGE_CURVE('',#229,#229,#196,.T.);
#273=EDGE_CURVE('',#229,#230,#157,.T.);
#274=EDGE_CURVE('',#230,#231,#197,.T.);
#275=EDGE_CURVE('',#231,#230,#198,.T.);
#276=EDGE_CURVE('',#231,#232,#158,.T.);
#277=EDGE_CURVE('',#232,#232,#199,.T.);
#278=EDGE_CURVE('',#233,#234,#35,.T.);
#279=EDGE_CURVE('',#235,#233,#159,.T.);
#280=EDGE_CURVE('',#236,#235,#36,.T.);
#281=EDGE_CURVE('',#234,#236,#200,.T.);
#282=EDGE_CURVE('',#237,#238,#201,.T.);
#283=EDGE_CURVE('',#237,#239,#160,.T.);
#284=EDGE_CURVE('',#235,#239,#202,.T.);
#285=EDGE_CURVE('',#238,#233,#203,.T.);
#286=EDGE_CURVE('',#240,#237,#37,.T.);
#287=EDGE_CURVE('',#241,#240,#204,.T.);
#288=EDGE_CURVE('',#239,#241,#38,.T.);
#289=EDGE_CURVE('',#242,#243,#205,.T.);
#290=EDGE_CURVE('',#243,#242,#206,.T.);
#291=EDGE_CURVE('',#242,#238,#33,.T.);
#292=EDGE_CURVE('',#234,#236,#207,.T.);
#293=EDGE_CURVE('',#241,#240,#208,.T.);
#294=EDGE_CURVE('',#244,#244,#209,.T.);
#295=EDGE_CURVE('',#244,#243,#161,.T.);
#296=EDGE_CURVE('',#245,#245,#210,.T.);
#297=EDGE_CURVE('',#246,#246,#211,.T.);
#298=EDGE_CURVE('',#246,#245,#162,.T.);
#299=EDGE_CURVE('',#232,#246,#163,.T.);
#300=EDGE_CURVE('',#247,#247,#212,.T.);
#301=EDGE_CURVE('',#247,#248,#164,.T.);
#302=EDGE_CURVE('',#248,#248,#213,.T.);
#303=EDGE_CURVE('',#249,#249,#214,.T.);
#304=EDGE_CURVE('',#249,#250,#165,.T.);
#305=EDGE_CURVE('',#250,#250,#215,.T.);
#306=ORIENTED_EDGE('',*,*,#251,.T.);
#307=ORIENTED_EDGE('',*,*,#252,.T.);
#308=ORIENTED_EDGE('',*,*,#253,.T.);
#309=ORIENTED_EDGE('',*,*,#254,.T.);
#310=ORIENTED_EDGE('',*,*,#253,.F.);
#311=ORIENTED_EDGE('',*,*,#255,.F.);
#312=ORIENTED_EDGE('',*,*,#256,.T.);
#313=ORIENTED_EDGE('',*,*,#251,.F.);
#314=ORIENTED_EDGE('',*,*,#252,.F.);
#315=ORIENTED_EDGE('',*,*,#256,.F.);
#316=ORIENTED_EDGE('',*,*,#254,.F.);
#317=ORIENTED_EDGE('',*,*,#257,.F.);
#318=ORIENTED_EDGE('',*,*,#258,.T.);
#319=ORIENTED_EDGE('',*,*,#259,.F.);
#320=ORIENTED_EDGE('',*,*,#258,.F.);
#321=ORIENTED_EDGE('',*,*,#259,.T.);
#322=ORIENTED_EDGE('',*,*,#260,.T.);
#323=ORIENTED_EDGE('',*,*,#261,.T.);
#324=ORIENTED_EDGE('',*,*,#262,.T.);
#325=ORIENTED_EDGE('',*,*,#261,.F.);
#326=ORIENTED_EDGE('',*,*,#263,.F.);
#327=ORIENTED_EDGE('',*,*,#264,.T.);
#328=ORIENTED_EDGE('',*,*,#262,.F.);
#329=ORIENTED_EDGE('',*,*,#264,.F.);
#330=ORIENTED_EDGE('',*,*,#255,.T.);
#331=ORIENTED_EDGE('',*,*,#265,.T.);
#332=ORIENTED_EDGE('',*,*,#260,.F.);
#333=ORIENTED_EDGE('',*,*,#265,.F.);
#334=ORIENTED_EDGE('',*,*,#263,.T.);
#335=ORIENTED_EDGE('',*,*,#257,.T.);
#336=ORIENTED_EDGE('',*,*,#266,.T.);
#337=ORIENTED_EDGE('',*,*,#267,.T.);
#338=ORIENTED_EDGE('',*,*,#268,.F.);
#339=ORIENTED_EDGE('',*,*,#269,.T.);
#340=ORIENTED_EDGE('',*,*,#267,.F.);
#341=ORIENTED_EDGE('',*,*,#269,.F.);
#342=ORIENTED_EDGE('',*,*,#270,.F.);
#343=ORIENTED_EDGE('',*,*,#271,.T.);
#344=ORIENTED_EDGE('',*,*,#266,.F.);
#345=ORIENTED_EDGE('',*,*,#271,.F.);
#346=ORIENTED_EDGE('',*,*,#270,.T.);
#347=ORIENTED_EDGE('',*,*,#268,.T.);
#348=ORIENTED_EDGE('',*,*,#272,.T.);
#349=ORIENTED_EDGE('',*,*,#273,.T.);
#350=ORIENTED_EDGE('',*,*,#274,.T.);
#351=ORIENTED_EDGE('',*,*,#275,.T.);
#352=ORIENTED_EDGE('',*,*,#273,.F.);
#353=ORIENTED_EDGE('',*,*,#274,.F.);
#354=ORIENTED_EDGE('',*,*,#275,.F.);
#355=ORIENTED_EDGE('',*,*,#276,.T.);
#356=ORIENTED_EDGE('',*,*,#277,.T.);
#357=ORIENTED_EDGE('',*,*,#276,.F.);
#358=ORIENTED_EDGE('',*,*,#272,.F.);
#359=ORIENTED_EDGE('',*,*,#278,.F.);
#360=ORIENTED_EDGE('',*,*,#279,.F.);
#361=ORIENTED_EDGE('',*,*,#280,.F.);
#362=ORIENTED_EDGE('',*,*,#281,.F.);
#363=ORIENTED_EDGE('',*,*,#282,.F.);
#364=ORIENTED_EDGE('',*,*,#283,.T.);
#365=ORIENTED_EDGE('',*,*,#284,.F.);
#366=ORIENTED_EDGE('',*,*,#279,.T.);
#367=ORIENTED_EDGE('',*,*,#285,.F.);
#368=ORIENTED_EDGE('',*,*,#286,.F.);
#369=ORIENTED_EDGE('',*,*,#287,.F.);
#370=ORIENTED_EDGE('',*,*,#288,.F.);
#371=ORIENTED_EDGE('',*,*,#283,.F.);
#372=ORIENTED_EDGE('',*,*,#289,.T.);
#373=ORIENTED_EDGE('',*,*,#290,.T.);
#374=ORIENTED_EDGE('',*,*,#291,.T.);
#375=ORIENTED_EDGE('',*,*,#285,.T.);
#376=ORIENTED_EDGE('',*,*,#278,.T.);
#377=ORIENTED_EDGE('',*,*,#292,.T.);
#378=ORIENTED_EDGE('',*,*,#280,.T.);
#379=ORIENTED_EDGE('',*,*,#284,.T.);
#380=ORIENTED_EDGE('',*,*,#288,.T.);
#381=ORIENTED_EDGE('',*,*,#293,.T.);
#382=ORIENTED_EDGE('',*,*,#286,.T.);
#383=ORIENTED_EDGE('',*,*,#282,.T.);
#384=ORIENTED_EDGE('',*,*,#291,.F.);
#385=ORIENTED_EDGE('',*,*,#281,.T.);
#386=ORIENTED_EDGE('',*,*,#292,.F.);
#387=ORIENTED_EDGE('',*,*,#287,.T.);
#388=ORIENTED_EDGE('',*,*,#293,.F.);
#389=ORIENTED_EDGE('',*,*,#294,.F.);
#390=ORIENTED_EDGE('',*,*,#295,.T.);
#391=ORIENTED_EDGE('',*,*,#289,.F.);
#392=ORIENTED_EDGE('',*,*,#290,.F.);
#393=ORIENTED_EDGE('',*,*,#295,.F.);
#394=ORIENTED_EDGE('',*,*,#294,.T.);
#395=ORIENTED_EDGE('',*,*,#296,.F.);
#396=ORIENTED_EDGE('',*,*,#297,.F.);
#397=ORIENTED_EDGE('',*,*,#298,.T.);
#398=ORIENTED_EDGE('',*,*,#296,.T.);
#399=ORIENTED_EDGE('',*,*,#298,.F.);
#400=ORIENTED_EDGE('',*,*,#277,.F.);
#401=ORIENTED_EDGE('',*,*,#299,.T.);
#402=ORIENTED_EDGE('',*,*,#297,.T.);
#403=ORIENTED_EDGE('',*,*,#299,.F.);
#404=ORIENTED_EDGE('',*,*,#300,.F.);
#405=ORIENTED_EDGE('',*,*,#301,.T.);
#406=ORIENTED_EDGE('',*,*,#302,.F.);
#407=ORIENTED_EDGE('',*,*,#301,.F.);
#408=ORIENTED_EDGE('',*,*,#303,.T.);
#409=ORIENTED_EDGE('',*,*,#304,.T.);
#410=ORIENTED_EDGE('',*,*,#305,.F.);
#411=ORIENTED_EDGE('',*,*,#304,.F.);
#412=ORIENTED_EDGE('',*,*,#303,.F.);
#413=ORIENTED_EDGE('',*,*,#302,.T.);
#414=ORIENTED_EDGE('',*,*,#305,.T.);
#415=ORIENTED_EDGE('',*,*,#300,.T.);
#416=CONICAL_SURFACE('',#534,1.25,0.785398163397448);
#417=CONICAL_SURFACE('',#564,0.607982499999998,0.785126549747393);
#418=CONICAL_SURFACE('',#585,1.29991438018687,0.000174532925199469);
#419=CONICAL_SURFACE('',#591,0.653999999999999,0.46357153362111);
#420=ADVANCED_FACE('',(#85),#416,.T.);
#421=ADVANCED_FACE('',(#86),#76,.T.);
#422=ADVANCED_FACE('',(#87),#64,.F.);
#423=ADVANCED_FACE('',(#88),#77,.F.);
#424=ADVANCED_FACE('',(#89),#65,.T.);
#425=ADVANCED_FACE('',(#90),#62,.T.);
#426=ADVANCED_FACE('',(#91),#78,.T.);
#427=ADVANCED_FACE('',(#92),#63,.F.);
#428=ADVANCED_FACE('',(#93,#56),#66,.T.);
#429=ADVANCED_FACE('',(#94,#57),#67,.F.);
#430=ADVANCED_FACE('',(#95),#79,.F.);
#431=ADVANCED_FACE('',(#96),#80,.T.);
#432=ADVANCED_FACE('',(#97,#58),#68,.T.);
#433=ADVANCED_FACE('',(#98),#417,.T.);
#434=ADVANCED_FACE('',(#99),#81,.T.);
#435=ADVANCED_FACE('',(#100),#69,.T.);
#436=ADVANCED_FACE('',(#101),#70,.F.);
#437=ADVANCED_FACE('',(#102),#71,.F.);
#438=ADVANCED_FACE('',(#103),#72,.F.);
#439=ADVANCED_FACE('',(#104),#34,.F.);
#440=ADVANCED_FACE('',(#105),#31,.T.);
#441=ADVANCED_FACE('',(#106),#32,.T.);
#442=ADVANCED_FACE('',(#107),#418,.T.);
#443=ADVANCED_FACE('',(#108,#59),#73,.T.);
#444=ADVANCED_FACE('',(#109),#82,.T.);
#445=ADVANCED_FACE('',(#110),#419,.T.);
#446=ADVANCED_FACE('',(#111),#83,.F.);
#447=ADVANCED_FACE('',(#112),#84,.T.);
#448=ADVANCED_FACE('',(#113,#60),#74,.F.);
#449=ADVANCED_FACE('',(#114,#61),#75,.T.);
#450=CLOSED_SHELL('',(#420,#421,#422,#423,#424,#425,#426,#427,#428));
#451=CLOSED_SHELL('',(#429,#430,#431,#432));
#452=CLOSED_SHELL('',(#433,#434,#435,#436,#437,#438,#439,#440,#441,#442,
#443,#444,#445));
#453=CLOSED_SHELL('',(#446,#447,#448,#449));
#454=DERIVED_UNIT_ELEMENT(#463,1.);
#455=DERIVED_UNIT_ELEMENT(#976,-3.);
#456=DERIVED_UNIT_ELEMENT(#463,1.);
#457=DERIVED_UNIT_ELEMENT(#976,-3.);
#458=DERIVED_UNIT_ELEMENT(#463,1.);
#459=DERIVED_UNIT_ELEMENT(#976,-3.);
#460=DERIVED_UNIT_ELEMENT(#463,1.);
#461=DERIVED_UNIT_ELEMENT(#976,-3.);
#462=DIMENSIONAL_EXPONENTS(0.,1.,0.,0.,0.,0.,0.);
#463=(
CONVERSION_BASED_UNIT('gram',#465)
MASS_UNIT()
NAMED_UNIT(#462)
);
#464=(
MASS_UNIT()
NAMED_UNIT(*)
SI_UNIT(.KILO.,.GRAM.)
);
#465=MASS_MEASURE_WITH_UNIT(MASS_MEASURE(0.001),#464);
#466=DERIVED_UNIT((#454,#455));
#467=DERIVED_UNIT((#456,#457));
#468=DERIVED_UNIT((#458,#459));
#469=DERIVED_UNIT((#460,#461));
#470=MEASURE_REPRESENTATION_ITEM('density measure',
POSITIVE_RATIO_MEASURE(1.),#466);
#471=MEASURE_REPRESENTATION_ITEM('density measure',
POSITIVE_RATIO_MEASURE(1.),#467);
#472=MEASURE_REPRESENTATION_ITEM('density measure',
POSITIVE_RATIO_MEASURE(7.85),#468);
#473=MEASURE_REPRESENTATION_ITEM('density measure',
POSITIVE_RATIO_MEASURE(7.85),#469);
#474=PROPERTY_DEFINITION_REPRESENTATION(#494,#482);
#475=PROPERTY_DEFINITION_REPRESENTATION(#495,#483);
#476=PROPERTY_DEFINITION_REPRESENTATION(#496,#484);
#477=PROPERTY_DEFINITION_REPRESENTATION(#497,#485);
#478=PROPERTY_DEFINITION_REPRESENTATION(#498,#486);
#479=PROPERTY_DEFINITION_REPRESENTATION(#499,#487);
#480=PROPERTY_DEFINITION_REPRESENTATION(#500,#488);
#481=PROPERTY_DEFINITION_REPRESENTATION(#501,#489);
#482=REPRESENTATION('material name',(#490),#970);
#483=REPRESENTATION('density',(#470),#970);
#484=REPRESENTATION('material name',(#491),#971);
#485=REPRESENTATION('density',(#471),#971);
#486=REPRESENTATION('material name',(#492),#972);
#487=REPRESENTATION('density',(#472),#972);
#488=REPRESENTATION('material name',(#493),#973);
#489=REPRESENTATION('density',(#473),#973);
#490=DESCRIPTIVE_REPRESENTATION_ITEM('Generic','Generic');
#491=DESCRIPTIVE_REPRESENTATION_ITEM('Generic','Generic');
#492=DESCRIPTIVE_REPRESENTATION_ITEM('Steel, Mild','Steel, Mild');
#493=DESCRIPTIVE_REPRESENTATION_ITEM('Steel','Steel');
#494=PROPERTY_DEFINITION('material property','material name',#1000);
#495=PROPERTY_DEFINITION('material property','density of part',#1000);
#496=PROPERTY_DEFINITION('material property','material name',#1001);
#497=PROPERTY_DEFINITION('material property','density of part',#1001);
#498=PROPERTY_DEFINITION('material property','material name',#1002);
#499=PROPERTY_DEFINITION('material property','density of part',#1002);
#500=PROPERTY_DEFINITION('material property','material name',#1003);
#501=PROPERTY_DEFINITION('material property','density of part',#1003);
#502=DATE_TIME_ROLE('creation_date');
#503=DATE_TIME_ROLE('creation_date');
#504=DATE_TIME_ROLE('creation_date');
#505=DATE_TIME_ROLE('creation_date');
#506=DATE_TIME_ROLE('creation_date');
#507=APPLIED_DATE_AND_TIME_ASSIGNMENT(#512,#502,(#999));
#508=APPLIED_DATE_AND_TIME_ASSIGNMENT(#513,#503,(#1000));
#509=APPLIED_DATE_AND_TIME_ASSIGNMENT(#514,#504,(#1001));
#510=APPLIED_DATE_AND_TIME_ASSIGNMENT(#515,#505,(#1002));
#511=APPLIED_DATE_AND_TIME_ASSIGNMENT(#516,#506,(#1003));
#512=DATE_AND_TIME(#517,#522);
#513=DATE_AND_TIME(#518,#523);
#514=DATE_AND_TIME(#519,#524);
#515=DATE_AND_TIME(#520,#525);
#516=DATE_AND_TIME(#521,#526);
#517=CALENDAR_DATE(2026,6,8);
#518=CALENDAR_DATE(2026,5,8);
#519=CALENDAR_DATE(2026,5,8);
#520=CALENDAR_DATE(2024,20,1);
#521=CALENDAR_DATE(2024,20,1);
#522=LOCAL_TIME(0,0,0.,#527);
#523=LOCAL_TIME(0,0,0.,#528);
#524=LOCAL_TIME(0,0,0.,#529);
#525=LOCAL_TIME(0,0,0.,#530);
#526=LOCAL_TIME(0,0,0.,#531);
#527=COORDINATED_UNIVERSAL_TIME_OFFSET(0,0,.BEHIND.);
#528=COORDINATED_UNIVERSAL_TIME_OFFSET(0,0,.BEHIND.);
#529=COORDINATED_UNIVERSAL_TIME_OFFSET(0,0,.BEHIND.);
#530=COORDINATED_UNIVERSAL_TIME_OFFSET(0,0,.BEHIND.);
#531=COORDINATED_UNIVERSAL_TIME_OFFSET(0,0,.BEHIND.);
#532=AXIS2_PLACEMENT_3D('',#769,#606,#607);
#533=AXIS2_PLACEMENT_3D('',#770,#608,#609);
#534=AXIS2_PLACEMENT_3D('',#771,#610,#611);
#535=AXIS2_PLACEMENT_3D('',#774,#612,#613);
#536=AXIS2_PLACEMENT_3D('',#775,#614,#615);
#537=AXIS2_PLACEMENT_3D('',#778,#617,#618);
#538=AXIS2_PLACEMENT_3D('',#779,#619,#620);
#539=AXIS2_PLACEMENT_3D('',#781,#621,#622);
#540=AXIS2_PLACEMENT_3D('',#783,#624,#625);
#541=AXIS2_PLACEMENT_3D('',#784,#626,#627);
#542=AXIS2_PLACEMENT_3D('',#786,#628,#629);
#543=AXIS2_PLACEMENT_3D('',#789,#631,#632);
#544=AXIS2_PLACEMENT_3D('',#790,#633,#634);
#545=AXIS2_PLACEMENT_3D('',#791,#635,#636);
#546=AXIS2_PLACEMENT_3D('',#793,#637,#638);
#547=AXIS2_PLACEMENT_3D('',#795,#639,#640);
#548=AXIS2_PLACEMENT_3D('',#796,#641,#642);
#549=AXIS2_PLACEMENT_3D('',#797,#643,#644);
#550=AXIS2_PLACEMENT_3D('',#799,#645,#646);
#551=AXIS2_PLACEMENT_3D('',#801,#648,#649);
#552=AXIS2_PLACEMENT_3D('',#802,#650,#651);
#553=AXIS2_PLACEMENT_3D('',#803,#652,#653);
#554=AXIS2_PLACEMENT_3D('',#804,#654,#655);
#555=AXIS2_PLACEMENT_3D('',#805,#656,#657);
#556=AXIS2_PLACEMENT_3D('',#807,#658,#659);
#557=AXIS2_PLACEMENT_3D('',#809,#660,#661);
#558=AXIS2_PLACEMENT_3D('',#810,#662,#663);
#559=AXIS2_PLACEMENT_3D('',#812,#664,#665);
#560=AXIS2_PLACEMENT_3D('',#814,#667,#668);
#561=AXIS2_PLACEMENT_3D('',#816,#669,#670);
#562=AXIS2_PLACEMENT_3D('',#818,#672,#673);
#563=AXIS2_PLACEMENT_3D('',#819,#674,#675);
#564=AXIS2_PLACEMENT_3D('',#820,#676,#677);
#565=AXIS2_PLACEMENT_3D('',#822,#678,#679);
#566=AXIS2_PLACEMENT_3D('',#826,#681,#682);
#567=AXIS2_PLACEMENT_3D('',#827,#683,#684);
#568=AXIS2_PLACEMENT_3D('',#828,#685,#686);
#569=AXIS2_PLACEMENT_3D('',#831,#688,#689);
#570=AXIS2_PLACEMENT_3D('',#832,#690,#691);
#571=AXIS2_PLACEMENT_3D('',#833,#692,#693);
#572=AXIS2_PLACEMENT_3D('',#859,#695,#696);
#573=AXIS2_PLACEMENT_3D('',#860,#697,#698);
#574=AXIS2_PLACEMENT_3D('',#863,#699,#700);
#575=AXIS2_PLACEMENT_3D('',#866,#702,#703);
#576=AXIS2_PLACEMENT_3D('',#867,#704,#705);
#577=AXIS2_PLACEMENT_3D('',#868,#706,#707);
#578=AXIS2_PLACEMENT_3D('',#881,#708,#709);
#579=AXIS2_PLACEMENT_3D('',#921,#710,#711);
#580=AXIS2_PLACEMENT_3D('',#922,#712,#713);
#581=AXIS2_PLACEMENT_3D('',#926,#714,#715);
#582=AXIS2_PLACEMENT_3D('',#927,#716,#717);
#583=AXIS2_PLACEMENT_3D('',#928,#718,#719);
#584=AXIS2_PLACEMENT_3D('',#929,#720,#721);
#585=AXIS2_PLACEMENT_3D('',#930,#722,#723);
#586=AXIS2_PLACEMENT_3D('',#932,#724,#725);
#587=AXIS2_PLACEMENT_3D('',#934,#727,#728);
#588=AXIS2_PLACEMENT_3D('',#936,#729,#730);
#589=AXIS2_PLACEMENT_3D('',#937,#731,#732);
#590=AXIS2_PLACEMENT_3D('',#939,#733,#734);
#591=AXIS2_PLACEMENT_3D('',#941,#736,#737);
#592=AXIS2_PLACEMENT_3D('',#943,#739,#740);
#593=AXIS2_PLACEMENT_3D('',#944,#741,#742);
#594=AXIS2_PLACEMENT_3D('',#946,#743,#744);
#595=AXIS2_PLACEMENT_3D('',#949,#746,#747);
#596=AXIS2_PLACEMENT_3D('',#950,#748,#749);
#597=AXIS2_PLACEMENT_3D('',#952,#750,#751);
#598=AXIS2_PLACEMENT_3D('',#955,#753,#754);
#599=AXIS2_PLACEMENT_3D('',#956,#755,#756);
#600=AXIS2_PLACEMENT_3D('',#957,#757,#758);
#601=AXIS2_PLACEMENT_3D('',#958,#759,#760);
#602=AXIS2_PLACEMENT_3D('',#959,#761,#762);
#603=AXIS2_PLACEMENT_3D('',#960,#763,#764);
#604=AXIS2_PLACEMENT_3D('',#961,#765,#766);
#605=AXIS2_PLACEMENT_3D('',#962,#767,#768);
#606=DIRECTION('axis',(0.,0.,1.));
#607=DIRECTION('refdir',(1.,0.,0.));
#608=DIRECTION('axis',(0.,0.,1.));
#609=DIRECTION('refdir',(1.,0.,0.));
#610=DIRECTION('center_axis',(0.,0.,1.));
#611=DIRECTION('ref_axis',(-1.,0.,0.));
#612=DIRECTION('center_axis',(0.,0.,-1.));
#613=DIRECTION('ref_axis',(-1.,0.,0.));
#614=DIRECTION('center_axis',(0.,0.,-1.));
#615=DIRECTION('ref_axis',(-1.,0.,0.));
#616=DIRECTION('',(-0.707106781186548,-8.65956056235493E-17,-0.707106781186548));
#617=DIRECTION('center_axis',(0.,0.,1.));
#618=DIRECTION('ref_axis',(-1.,0.,0.));
#619=DIRECTION('center_axis',(0.,0.,1.));
#620=DIRECTION('ref_axis',(1.,0.,0.));
#621=DIRECTION('center_axis',(0.,0.,1.));
#622=DIRECTION('ref_axis',(-1.,1.22464679914735E-16,0.));
#623=DIRECTION('',(0.,0.,-1.));
#624=DIRECTION('center_axis',(0.,0.,1.));
#625=DIRECTION('ref_axis',(1.,0.,0.));
#626=DIRECTION('center_axis',(0.,0.,1.));
#627=DIRECTION('ref_axis',(1.,0.,0.));
#628=DIRECTION('center_axis',(0.,0.,-1.));
#629=DIRECTION('ref_axis',(1.,0.,0.));
#630=DIRECTION('',(0.,0.,-1.));
#631=DIRECTION('center_axis',(0.,0.,1.));
#632=DIRECTION('ref_axis',(1.,0.,0.));
#633=DIRECTION('center_axis',(0.,0.,1.));
#634=DIRECTION('ref_axis',(1.,0.,0.));
#635=DIRECTION('center_axis',(0.,0.,-1.));
#636=DIRECTION('ref_axis',(1.,1.22464679914735E-16,0.));
#637=DIRECTION('center_axis',(0.,0.,1.));
#638=DIRECTION('ref_axis',(1.,1.22464679914735E-16,0.));
#639=DIRECTION('center_axis',(-2.44929359829471E-16,1.,0.));
#640=DIRECTION('ref_axis',(-1.,-2.44929359829471E-16,0.));
#641=DIRECTION('center_axis',(0.,0.,-1.));
#642=DIRECTION('ref_axis',(1.,1.22464679914735E-16,0.));
#643=DIRECTION('center_axis',(0.,0.,1.));
#644=DIRECTION('ref_axis',(1.,0.,0.));
#645=DIRECTION('center_axis',(0.,0.,1.));
#646=DIRECTION('ref_axis',(1.,0.,0.));
#647=DIRECTION('',(0.,0.,-1.));
#648=DIRECTION('center_axis',(0.,0.,1.));
#649=DIRECTION('ref_axis',(1.,0.,0.));
#650=DIRECTION('center_axis',(1.22464679914735E-16,-1.,0.));
#651=DIRECTION('ref_axis',(-1.,-1.22464679914735E-16,0.));
#652=DIRECTION('center_axis',(0.,0.,1.));
#653=DIRECTION('ref_axis',(1.,0.,0.));
#654=DIRECTION('axis',(0.,0.,1.));
#655=DIRECTION('refdir',(1.,0.,0.));
#656=DIRECTION('center_axis',(0.,0.,1.));
#657=DIRECTION('ref_axis',(1.,0.,0.));
#658=DIRECTION('center_axis',(0.,0.,-1.));
#659=DIRECTION('ref_axis',(1.,0.,0.));
#660=DIRECTION('center_axis',(0.,0.,1.));
#661=DIRECTION('ref_axis',(-1.,0.,0.));
#662=DIRECTION('center_axis',(0.,0.,1.));
#663=DIRECTION('ref_axis',(-1.,0.,0.));
#664=DIRECTION('center_axis',(0.,0.,-1.));
#665=DIRECTION('ref_axis',(-1.,0.,0.));
#666=DIRECTION('',(0.,0.,-1.));
#667=DIRECTION('center_axis',(0.,0.,1.));
#668=DIRECTION('ref_axis',(1.,0.,0.));
#669=DIRECTION('center_axis',(0.,0.,1.));
#670=DIRECTION('ref_axis',(1.,0.,0.));
#671=DIRECTION('',(0.,0.,-1.));
#672=DIRECTION('center_axis',(0.,0.,1.));
#673=DIRECTION('ref_axis',(1.,0.,0.));
#674=DIRECTION('axis',(0.,0.,1.));
#675=DIRECTION('refdir',(1.,0.,0.));
#676=DIRECTION('center_axis',(-1.,1.96170931873138E-32,0.));
#677=DIRECTION('ref_axis',(-8.32403357530223E-33,-1.,0.));
#678=DIRECTION('center_axis',(-1.,1.96170931873138E-32,0.));
#679=DIRECTION('ref_axis',(-1.96170931873138E-32,-1.,0.));
#680=DIRECTION('',(-0.707298814954964,0.706914695252053,8.65720818810654E-17));
#681=DIRECTION('center_axis',(1.,-1.96170931873138E-32,0.));
#682=DIRECTION('ref_axis',(0.,-1.,0.));
#683=DIRECTION('center_axis',(1.,-1.96170931873138E-32,0.));
#684=DIRECTION('ref_axis',(0.,-1.,0.));
#685=DIRECTION('center_axis',(1.,-1.96170931873138E-32,0.));
#686=DIRECTION('ref_axis',(0.,1.,0.));
#687=DIRECTION('',(-1.,1.96170931873138E-32,0.));
#688=DIRECTION('center_axis',(1.,-1.96170931873138E-32,0.));
#689=DIRECTION('ref_axis',(0.,1.,0.));
#690=DIRECTION('center_axis',(1.,-1.96170931873138E-32,0.));
#691=DIRECTION('ref_axis',(0.,0.,-1.));
#692=DIRECTION('center_axis',(0.,-1.,-1.33440267382831E-16));
#693=DIRECTION('ref_axis',(0.,1.33440267382831E-16,-1.));
#694=DIRECTION('',(-2.61771016018907E-48,-1.33440267382831E-16,1.));
#695=DIRECTION('center_axis',(0.,-1.,-1.33440267382831E-16));
#696=DIRECTION('ref_axis',(0.,-1.33440267382831E-16,1.));
#697=DIRECTION('center_axis',(1.,0.,0.));
#698=DIRECTION('ref_axis',(0.,0.,-1.));
#699=DIRECTION('center_axis',(1.,-9.80854659365691E-33,0.));
#700=DIRECTION('ref_axis',(0.,0.,-1.));
#701=DIRECTION('',(2.09416812815126E-48,1.06752213906265E-16,-1.));
#702=DIRECTION('center_axis',(1.,-9.80854659365691E-33,0.));
#703=DIRECTION('ref_axis',(0.,0.,-1.));
#704=DIRECTION('center_axis',(1.,-9.80854659365691E-33,0.));
#705=DIRECTION('ref_axis',(0.,0.,-1.));
#706=DIRECTION('center_axis',(0.,1.,1.06752213906265E-16));
#707=DIRECTION('ref_axis',(0.,-1.06752213906265E-16,1.));
#708=DIRECTION('center_axis',(0.,1.,1.06752213906265E-16));
#709=DIRECTION('ref_axis',(0.,1.06752213906265E-16,-1.));
#710=DIRECTION('center_axis',(-1.,0.,0.));
#711=DIRECTION('ref_axis',(0.,-1.,0.));
#712=DIRECTION('center_axis',(-1.,0.,0.));
#713=DIRECTION('ref_axis',(0.,-1.,0.));
#714=DIRECTION('center_axis',(1.,-1.96170931873138E-32,0.));
#715=DIRECTION('ref_axis',(0.,-1.,1.22464679914735E-16));
#716=DIRECTION('center_axis',(1.,-1.96170931873138E-32,0.));
#717=DIRECTION('ref_axis',(0.,-1.,1.22464679914735E-16));
#718=DIRECTION('center_axis',(0.,0.,1.));
#719=DIRECTION('ref_axis',(1.,0.,0.));
#720=DIRECTION('center_axis',(0.,0.,1.));
#721=DIRECTION('ref_axis',(1.,0.,0.));
#722=DIRECTION('center_axis',(1.,-1.96170931873138E-32,0.));
#723=DIRECTION('ref_axis',(0.,1.,0.));
#724=DIRECTION('center_axis',(1.,-1.96170931873138E-32,0.));
#725=DIRECTION('ref_axis',(0.,1.,0.));
#726=DIRECTION('',(-0.999999984769129,0.000174532924313373,2.13741187106199E-20));
#727=DIRECTION('center_axis',(1.,-1.96170931873138E-32,0.));
#728=DIRECTION('ref_axis',(0.,0.,-1.));
#729=DIRECTION('center_axis',(1.,-1.96170931873138E-32,0.));
#730=DIRECTION('ref_axis',(0.,1.,0.));
#731=DIRECTION('center_axis',(1.,-1.96170931873138E-32,0.));
#732=DIRECTION('ref_axis',(0.,1.,0.));
#733=DIRECTION('center_axis',(1.,-1.96170931873138E-32,0.));
#734=DIRECTION('ref_axis',(0.,1.,0.));
#735=DIRECTION('',(-1.,1.96170931873138E-32,0.));
#736=DIRECTION('center_axis',(1.,-1.96170931873138E-32,0.));
#737=DIRECTION('ref_axis',(0.,1.,0.));
#738=DIRECTION('',(-0.894461210355734,0.447145550317741,5.47595366949604E-17));
#739=DIRECTION('axis',(0.,0.,1.));
#740=DIRECTION('refdir',(1.,0.,0.));
#741=DIRECTION('center_axis',(1.,0.,0.));
#742=DIRECTION('ref_axis',(0.,-1.,0.));
#743=DIRECTION('center_axis',(1.,0.,0.));
#744=DIRECTION('ref_axis',(0.,-1.,0.));
#745=DIRECTION('',(1.,0.,0.));
#746=DIRECTION('center_axis',(-1.,0.,0.));
#747=DIRECTION('ref_axis',(0.,-1.,0.));
#748=DIRECTION('center_axis',(1.,0.,0.));
#749=DIRECTION('ref_axis',(0.,-1.,0.));
#750=DIRECTION('center_axis',(-1.,0.,0.));
#751=DIRECTION('ref_axis',(0.,-1.,0.));
#752=DIRECTION('',(-1.,0.,0.));
#753=DIRECTION('center_axis',(-1.,0.,0.));
#754=DIRECTION('ref_axis',(0.,-1.,0.));
#755=DIRECTION('center_axis',(-1.,0.,0.));
#756=DIRECTION('ref_axis',(0.,0.,1.));
#757=DIRECTION('center_axis',(-1.,0.,0.));
#758=DIRECTION('ref_axis',(0.,0.,1.));
#759=DIRECTION('',(0.,0.,1.));
#760=DIRECTION('',(1.,0.,0.));
#761=DIRECTION('',(0.,0.,1.));
#762=DIRECTION('',(0.889444218449782,-0.457043742180392,0.));
#763=DIRECTION('',(0.0282684710316844,0.999600366919466,8.55284707229503E-50));
#764=DIRECTION('',(-1.96092535479322E-32,5.54545230491434E-34,-1.));
#765=DIRECTION('',(0.99996085510185,0.00884806555004282,-9.27894339118851E-50));
#766=DIRECTION('',(-1.95363004387481E-143,-1.04869740608371E-47,-1.));
#767=DIRECTION('center_axis',(0.,0.,1.));
#768=DIRECTION('ref_axis',(1.,0.,0.));
#769=CARTESIAN_POINT('',(0.,0.,0.));
#770=CARTESIAN_POINT('',(0.,0.,0.));
#771=CARTESIAN_POINT('Origin',(0.,0.,0.25));
#772=CARTESIAN_POINT('',(1.5,-1.83697019872103E-16,0.5));
#773=CARTESIAN_POINT('',(-1.5,-1.83697019872103E-16,0.5));
#774=CARTESIAN_POINT('Origin',(0.,0.,0.5));
#775=CARTESIAN_POINT('Origin',(0.,0.,0.5));
#776=CARTESIAN_POINT('',(1.,1.22464679914735E-16,0.));
#777=CARTESIAN_POINT('',(1.25,1.53080849893419E-16,0.25));
#778=CARTESIAN_POINT('Origin',(0.,0.,0.));
#779=CARTESIAN_POINT('Origin',(0.,0.,0.));
#780=CARTESIAN_POINT('',(-1.5,-1.83697019872103E-16,38.8));
#781=CARTESIAN_POINT('Origin',(0.,0.,38.8));
#782=CARTESIAN_POINT('',(-1.5,-1.83697019872103E-16,0.));
#783=CARTESIAN_POINT('Origin',(0.,0.,0.));
#784=CARTESIAN_POINT('Origin',(0.,0.,37.7));
#785=CARTESIAN_POINT('',(-0.5917468,-7.24680824525689E-17,40.));
#786=CARTESIAN_POINT('Origin',(0.,0.,40.));
#787=CARTESIAN_POINT('',(-0.5917468,-7.24680824525689E-17,35.4));
#788=CARTESIAN_POINT('',(-0.5917468,-7.24680824525689E-17,37.7));
#789=CARTESIAN_POINT('Origin',(0.,0.,35.4));
#790=CARTESIAN_POINT('Origin',(0.,0.,35.4));
#791=CARTESIAN_POINT('Origin',(0.,0.,39.1708099243548));
#792=CARTESIAN_POINT('',(-1.625,-3.9801020972289E-16,38.9854049621774));
#793=CARTESIAN_POINT('Origin',(0.,0.,38.9854049621774));
#794=CARTESIAN_POINT('',(-1.75,0.,39.1708099243548));
#795=CARTESIAN_POINT('Origin',(-1.55,-3.7964050773568E-16,39.1708099243548));
#796=CARTESIAN_POINT('Origin',(0.,0.,39.1708099243548));
#797=CARTESIAN_POINT('Origin',(0.,0.,39.));
#798=CARTESIAN_POINT('',(-1.75,-2.14313189850787E-16,40.));
#799=CARTESIAN_POINT('Origin',(0.,0.,40.));
#800=CARTESIAN_POINT('',(-1.75,-2.14313189850787E-16,39.));
#801=CARTESIAN_POINT('Origin',(0.,0.,38.8));
#802=CARTESIAN_POINT('Origin',(-1.7,-2.0818995585505E-16,38.8));
#803=CARTESIAN_POINT('Origin',(0.,0.,40.));
#804=CARTESIAN_POINT('',(0.,0.,0.));
#805=CARTESIAN_POINT('Origin',(0.,0.,-0.4));
#806=CARTESIAN_POINT('',(-9.5,-1.16341445918999E-15,-0.4));
#807=CARTESIAN_POINT('Origin',(0.,0.,-0.4));
#808=CARTESIAN_POINT('',(0.800000000000001,9.79717439317883E-17,-0.4));
#809=CARTESIAN_POINT('Origin',(0.,0.,-0.4));
#810=CARTESIAN_POINT('Origin',(0.,0.,0.));
#811=CARTESIAN_POINT('',(0.800000000000001,9.79717439317883E-17,0.4));
#812=CARTESIAN_POINT('Origin',(0.,0.,0.4));
#813=CARTESIAN_POINT('',(0.8,9.79717439317883E-17,0.));
#814=CARTESIAN_POINT('Origin',(0.,0.,0.));
#815=CARTESIAN_POINT('',(-9.5,-1.16341445918999E-15,0.4));
#816=CARTESIAN_POINT('Origin',(0.,0.,0.4));
#817=CARTESIAN_POINT('',(-9.5,-1.16341445918999E-15,0.));
#818=CARTESIAN_POINT('Origin',(0.,0.,0.4));
#819=CARTESIAN_POINT('',(0.,0.,0.));
#820=CARTESIAN_POINT('Origin',(3.9079325,-9.67774423012986E-32,0.));
#821=CARTESIAN_POINT('',(4.,0.515964999999998,-6.31874885722062E-17));
#822=CARTESIAN_POINT('Origin',(4.,-9.85835390283216E-32,0.));
#823=CARTESIAN_POINT('',(3.815865,0.699999999999998,8.57252759403145E-17));
#824=CARTESIAN_POINT('',(3.9079325,0.607982499999998,7.44563822562603E-17));
#825=CARTESIAN_POINT('',(3.815865,-0.699999999999998,-8.57252759403145E-17));
#826=CARTESIAN_POINT('Origin',(3.815865,-9.49713455742756E-32,0.));
#827=CARTESIAN_POINT('Origin',(3.815865,-9.49713455742756E-32,0.));
#828=CARTESIAN_POINT('Origin',(2.375,-6.67057625989367E-32,0.));
#829=CARTESIAN_POINT('',(0.75,-0.699999999999998,-8.57252759403145E-17));
#830=CARTESIAN_POINT('',(2.375,-0.699999999999998,-8.57252759403145E-17));
#831=CARTESIAN_POINT('Origin',(0.75,-3.48279861695517E-32,0.));
#832=CARTESIAN_POINT('Origin',(4.,0.349999999999999,0.));
#833=CARTESIAN_POINT('Origin',(-1.02538975,-0.16,-4.16333634234434E-16));
#834=CARTESIAN_POINT('',(-0.425389749999998,-0.16,1.236633148185));
#835=CARTESIAN_POINT('',(-1.02077917144561,-0.16,0.388057158524683));
#836=CARTESIAN_POINT('Ctrl Pts',(-0.425389749999998,-0.16,1.236633148185));
#837=CARTESIAN_POINT('Ctrl Pts',(-0.438311076865005,-0.16,1.23195058724115));
#838=CARTESIAN_POINT('Ctrl Pts',(-0.450922393965615,-0.16,1.22704216899329));
#839=CARTESIAN_POINT('Ctrl Pts',(-0.565475625502316,-0.16,1.17955406398006));
#840=CARTESIAN_POINT('Ctrl Pts',(-0.675913963589102,-0.16,1.10559638694748));
#841=CARTESIAN_POINT('Ctrl Pts',(-0.833250860234623,-0.16,0.947966686158869));
#842=CARTESIAN_POINT('Ctrl Pts',(-0.907562136932467,-0.16,0.836047316318037));
#843=CARTESIAN_POINT('Ctrl Pts',(-0.992445497571731,-0.16,0.630100287717675));
#844=CARTESIAN_POINT('Ctrl Pts',(-1.01848317510137,-0.16,0.501092663481474));
#845=CARTESIAN_POINT('Ctrl Pts',(-1.02077917144604,-0.16,0.388057158524692));
#846=CARTESIAN_POINT('',(-0.425389749999998,-0.16,-1.236633148185));
#847=CARTESIAN_POINT('',(-0.425389749999998,-0.16,-1.3));
#848=CARTESIAN_POINT('',(-1.02077917144561,-0.16,-0.388057158524683));
#849=CARTESIAN_POINT('Ctrl Pts',(-1.02077917144604,-0.16,-0.388057158524691));
#850=CARTESIAN_POINT('Ctrl Pts',(-1.01848317510137,-0.16,-0.501092663481473));
#851=CARTESIAN_POINT('Ctrl Pts',(-0.992445497571731,-0.16,-0.630100287717675));
#852=CARTESIAN_POINT('Ctrl Pts',(-0.907562136932467,-0.16,-0.836047316318037));
#853=CARTESIAN_POINT('Ctrl Pts',(-0.833250860234623,-0.16,-0.947966686158869));
#854=CARTESIAN_POINT('Ctrl Pts',(-0.675913963589102,-0.16,-1.10559638694748));
#855=CARTESIAN_POINT('Ctrl Pts',(-0.565475625502316,-0.16,-1.17955406398006));
#856=CARTESIAN_POINT('Ctrl Pts',(-0.450922393965615,-0.16,-1.22704216899329));
#857=CARTESIAN_POINT('Ctrl Pts',(-0.438311076865005,-0.16,-1.23195058724115));
#858=CARTESIAN_POINT('Ctrl Pts',(-0.425389749999998,-0.16,-1.236633148185));
#859=CARTESIAN_POINT('Origin',(18.0838840253302,-0.16,-2.1350442781253E-17));
#860=CARTESIAN_POINT('Origin',(-0.425389749999999,1.30104260698261E-16,
-5.55111512312578E-16));
#861=CARTESIAN_POINT('',(-0.425389749999998,0.16,1.23663314818499));
#862=CARTESIAN_POINT('',(-0.425389749999999,-1.52706215003968E-16,1.24694087397516));
#863=CARTESIAN_POINT('Origin',(-0.425389749999999,-1.4755913068997E-32,
0.));
#864=CARTESIAN_POINT('',(-0.425389749999998,0.16,-1.23663314818499));
#865=CARTESIAN_POINT('',(-0.425389749999998,0.16,1.3));
#866=CARTESIAN_POINT('Origin',(-0.425389749999999,-1.4755913068997E-32,
0.));
#867=CARTESIAN_POINT('Origin',(-0.425389749999999,-1.4755913068997E-32,
0.));
#868=CARTESIAN_POINT('Origin',(-1.02538975,0.16,-3.77144936661718E-16));
#869=CARTESIAN_POINT('',(-1.02077917144561,0.16,0.388057158524683));
#870=CARTESIAN_POINT('Ctrl Pts',(-1.02077917144604,0.16,0.388057158524691));
#871=CARTESIAN_POINT('Ctrl Pts',(-1.01848317510137,0.16,0.501092663481474));
#872=CARTESIAN_POINT('Ctrl Pts',(-0.992445497571731,0.16,0.630100287717675));
#873=CARTESIAN_POINT('Ctrl Pts',(-0.907562136932467,0.16,0.836047316318037));
#874=CARTESIAN_POINT('Ctrl Pts',(-0.833250860234623,0.16,0.947966686158869));
#875=CARTESIAN_POINT('Ctrl Pts',(-0.675913963589102,0.16,1.10559638694748));
#876=CARTESIAN_POINT('Ctrl Pts',(-0.565475625502316,0.16,1.17955406398006));
#877=CARTESIAN_POINT('Ctrl Pts',(-0.450922393965615,0.16,1.22704216899329));
#878=CARTESIAN_POINT('Ctrl Pts',(-0.438311076865005,0.16,1.23195058724115));
#879=CARTESIAN_POINT('Ctrl Pts',(-0.425389749999998,0.16,1.236633148185));
#880=CARTESIAN_POINT('',(-1.02077917144561,0.16,-0.388057158524683));
#881=CARTESIAN_POINT('Origin',(18.0838840253302,0.16,1.70803542250024E-17));
#882=CARTESIAN_POINT('Ctrl Pts',(-0.425389749999998,0.16,-1.236633148185));
#883=CARTESIAN_POINT('Ctrl Pts',(-0.438311076865005,0.16,-1.23195058724115));
#884=CARTESIAN_POINT('Ctrl Pts',(-0.450922393965615,0.16,-1.22704216899329));
#885=CARTESIAN_POINT('Ctrl Pts',(-0.565475625502316,0.16,-1.17955406398006));
#886=CARTESIAN_POINT('Ctrl Pts',(-0.675913963589102,0.16,-1.10559638694748));
#887=CARTESIAN_POINT('Ctrl Pts',(-0.833250860234623,0.16,-0.947966686158869));
#888=CARTESIAN_POINT('Ctrl Pts',(-0.907562136932467,0.16,-0.836047316318037));
#889=CARTESIAN_POINT('Ctrl Pts',(-0.992445497571731,0.16,-0.630100287717675));
#890=CARTESIAN_POINT('Ctrl Pts',(-1.01848317510137,0.16,-0.501092663481474));
#891=CARTESIAN_POINT('Ctrl Pts',(-1.02077917144604,0.16,-0.388057158524691));
#892=CARTESIAN_POINT('Ctrl Pts',(-1.02077917144604,-9.04461491519534E-35,
0.419747969956089));
#893=CARTESIAN_POINT('Ctrl Pts',(-1.02077917144604,-0.419747969956089,0.419747969956089));
#894=CARTESIAN_POINT('Ctrl Pts',(-1.02077917144604,-0.419747969956089,0.));
#895=CARTESIAN_POINT('Ctrl Pts',(-1.02077917144604,-0.419747969956089,-0.419747969956089));
#896=CARTESIAN_POINT('Ctrl Pts',(-1.02077917144604,-9.04461491519534E-35,
-0.419747969956089));
#897=CARTESIAN_POINT('Ctrl Pts',(-1.02077917144604,0.419747969956089,-0.419747969956089));
#898=CARTESIAN_POINT('Ctrl Pts',(-1.02077917144604,0.419747969956089,0.));
#899=CARTESIAN_POINT('Ctrl Pts',(-1.02077917144604,0.419747969956089,0.419747969956089));
#900=CARTESIAN_POINT('Ctrl Pts',(-1.02077917144604,-9.04461491519534E-35,
0.419747969956089));
#901=CARTESIAN_POINT('Ctrl Pts',(-1.00144302124551,-4.69765209519584E-34,
1.29982521521831));
#902=CARTESIAN_POINT('Ctrl Pts',(-1.00144302124551,-1.29982521521831,1.29982521521831));
#903=CARTESIAN_POINT('Ctrl Pts',(-1.00144302124551,-1.29982521521831,-1.06910588403688E-48));
#904=CARTESIAN_POINT('Ctrl Pts',(-1.00144302124551,-1.29982521521831,-1.29982521521831));
#905=CARTESIAN_POINT('Ctrl Pts',(-1.00144302124551,-4.69765209519582E-34,
-1.29982521521831));
#906=CARTESIAN_POINT('Ctrl Pts',(-1.00144302124551,1.29982521521831,-1.29982521521831));
#907=CARTESIAN_POINT('Ctrl Pts',(-1.00144302124551,1.29982521521831,1.06910588403688E-48));
#908=CARTESIAN_POINT('Ctrl Pts',(-1.00144302124551,1.29982521521831,1.29982521521831));
#909=CARTESIAN_POINT('Ctrl Pts',(-1.00144302124551,-4.69765209519584E-34,
1.29982521521831));
#910=CARTESIAN_POINT('Ctrl Pts',(-0.121153398037442,-1.77384887798177E-32,
1.29997885474283));
#911=CARTESIAN_POINT('Ctrl Pts',(-0.121153398037442,-1.29997885474283,1.29997885474283));
#912=CARTESIAN_POINT('Ctrl Pts',(-0.121153398037442,-1.29997885474283,0.));
#913=CARTESIAN_POINT('Ctrl Pts',(-0.121153398037442,-1.29997885474283,-1.29997885474283));
#914=CARTESIAN_POINT('Ctrl Pts',(-0.121153398037442,-1.77384887798177E-32,
-1.29997885474283));
#915=CARTESIAN_POINT('Ctrl Pts',(-0.121153398037442,1.29997885474283,-1.29997885474283));
#916=CARTESIAN_POINT('Ctrl Pts',(-0.121153398037442,1.29997885474283,0.));
#917=CARTESIAN_POINT('Ctrl Pts',(-0.121153398037442,1.29997885474283,1.29997885474283));
#918=CARTESIAN_POINT('Ctrl Pts',(-0.121153398037442,-1.77384887798177E-32,
1.29997885474283));
#919=CARTESIAN_POINT('',(-0.121153398037442,-1.59201494342005E-16,1.29997885474283));
#920=CARTESIAN_POINT('',(-0.121153398037442,-1.29997885474283,-1.59201494342005E-16));
#921=CARTESIAN_POINT('Origin',(-0.121153398037442,0.,-1.59201494342005E-16));
#922=CARTESIAN_POINT('Origin',(-0.121153398037442,0.,-1.59201494342005E-16));
#923=CARTESIAN_POINT('Ctrl Pts',(-0.121153398037442,-1.77384887798177E-32,
1.29997885474283));
#924=CARTESIAN_POINT('Ctrl Pts',(-0.277889900531333,-1.46637742045414E-32,
1.29995149906228));
#925=CARTESIAN_POINT('Ctrl Pts',(-0.425389749990824,-1.17702559125798E-32,
1.24694087397846));
#926=CARTESIAN_POINT('Origin',(-1.02077917144561,-1.86184538070063E-32,
0.));
#927=CARTESIAN_POINT('Origin',(-1.02077917144561,-1.86184538070063E-32,
0.));
#928=CARTESIAN_POINT('Origin',(18.0838840253302,0.,0.));
#929=CARTESIAN_POINT('Origin',(18.0838840253302,0.,0.));
#930=CARTESIAN_POINT('Origin',(-0.490565388515185,-1.04916993380932E-32,
0.));
#931=CARTESIAN_POINT('',(1.73472347597681E-15,-1.3,-1.59204083889156E-16));
#932=CARTESIAN_POINT('Origin',(1.66533453693773E-15,-2.01151662790664E-32,
0.));
#933=CARTESIAN_POINT('',(-0.490565388515185,-1.29991438018687,-1.59193598486147E-16));
#934=CARTESIAN_POINT('Origin',(1.66533453693773E-15,0.954,0.));
#935=CARTESIAN_POINT('',(1.66533453693773E-15,-0.608,-7.4458525388159E-17));
#936=CARTESIAN_POINT('Origin',(1.66533453693773E-15,-2.01151662790664E-32,
0.));
#937=CARTESIAN_POINT('Origin',(0.282982500000001,-2.56664603519454E-32,
0.));
#938=CARTESIAN_POINT('',(0.565964999999999,-0.608,-7.4458525388159E-17));
#939=CARTESIAN_POINT('Origin',(0.565964999999999,-3.12177544248244E-32,
0.));
#940=CARTESIAN_POINT('',(0.282982500000001,-0.608,-7.4458525388159E-17));
#941=CARTESIAN_POINT('Origin',(0.657982499999999,-3.30228702971881E-32,
0.));
#942=CARTESIAN_POINT('',(0.657982499999999,-0.653999999999999,-8.00919006642367E-17));
#943=CARTESIAN_POINT('',(0.,0.,0.));
#944=CARTESIAN_POINT('Origin',(0.,0.,0.));
#945=CARTESIAN_POINT('',(0.,0.9,1.10218211923262E-16));
#946=CARTESIAN_POINT('Origin',(0.,0.,0.));
#947=CARTESIAN_POINT('',(0.3,0.9,1.10218211923262E-16));
#948=CARTESIAN_POINT('',(0.,0.9,1.10218211923262E-16));
#949=CARTESIAN_POINT('Origin',(0.3,0.,0.));
#950=CARTESIAN_POINT('Origin',(0.,0.,0.));
#951=CARTESIAN_POINT('',(0.3,2.,2.44929359829471E-16));
#952=CARTESIAN_POINT('Origin',(0.3,0.,0.));
#953=CARTESIAN_POINT('',(0.,2.,2.44929359829471E-16));
#954=CARTESIAN_POINT('',(0.,2.,2.44929359829471E-16));
#955=CARTESIAN_POINT('Origin',(0.,0.,0.));
#956=CARTESIAN_POINT('Origin',(0.3,0.,0.));
#957=CARTESIAN_POINT('Origin',(0.,0.,0.));
#958=CARTESIAN_POINT('',(0.,0.,0.));
#959=CARTESIAN_POINT('',(0.,0.,40.4));
#960=CARTESIAN_POINT('',(-2.01071275932008E-32,5.68624995257303E-34,41.1));
#961=CARTESIAN_POINT('',(-1.5192313668364E-63,-1.48368246027497E-65,41.1));
#962=CARTESIAN_POINT('Origin',(0.,0.,0.));
#963=UNCERTAINTY_MEASURE_WITH_UNIT(LENGTH_MEASURE(0.01),#975,
'DISTANCE_ACCURACY_VALUE',
'Maximum model space distance between geometric entities at asserted c
onnectivities');
#964=UNCERTAINTY_MEASURE_WITH_UNIT(LENGTH_MEASURE(0.01),#975,
'DISTANCE_ACCURACY_VALUE',
'Maximum model space distance between geometric entities at asserted c
onnectivities');
#965=UNCERTAINTY_MEASURE_WITH_UNIT(LENGTH_MEASURE(0.01),#975,
'DISTANCE_ACCURACY_VALUE',
'Maximum model space distance between geometric entities at asserted c
onnectivities');
#966=UNCERTAINTY_MEASURE_WITH_UNIT(LENGTH_MEASURE(0.01),#975,
'DISTANCE_ACCURACY_VALUE',
'Maximum model space distance between geometric entities at asserted c
onnectivities');
#967=UNCERTAINTY_MEASURE_WITH_UNIT(LENGTH_MEASURE(0.01),#975,
'DISTANCE_ACCURACY_VALUE',
'Maximum model space distance between geometric entities at asserted c
onnectivities');
#968=UNCERTAINTY_MEASURE_WITH_UNIT(LENGTH_MEASURE(0.01),#975,
'DISTANCE_ACCURACY_VALUE',
'Maximum model space distance between geometric entities at asserted c
onnectivities');
#969=(
GEOMETRIC_REPRESENTATION_CONTEXT(3)
GLOBAL_UNCERTAINTY_ASSIGNED_CONTEXT((#963))
GLOBAL_UNIT_ASSIGNED_CONTEXT((#975,#977,#978))
REPRESENTATION_CONTEXT('','3D')
);
#970=(
GEOMETRIC_REPRESENTATION_CONTEXT(3)
GLOBAL_UNCERTAINTY_ASSIGNED_CONTEXT((#964))
GLOBAL_UNIT_ASSIGNED_CONTEXT((#975,#977,#978))
REPRESENTATION_CONTEXT('','3D')
);
#971=(
GEOMETRIC_REPRESENTATION_CONTEXT(3)
GLOBAL_UNCERTAINTY_ASSIGNED_CONTEXT((#965))
GLOBAL_UNIT_ASSIGNED_CONTEXT((#975,#977,#978))
REPRESENTATION_CONTEXT('','3D')
);
#972=(
GEOMETRIC_REPRESENTATION_CONTEXT(3)
GLOBAL_UNCERTAINTY_ASSIGNED_CONTEXT((#966))
GLOBAL_UNIT_ASSIGNED_CONTEXT((#975,#977,#978))
REPRESENTATION_CONTEXT('','3D')
);
#973=(
GEOMETRIC_REPRESENTATION_CONTEXT(3)
GLOBAL_UNCERTAINTY_ASSIGNED_CONTEXT((#967))
GLOBAL_UNIT_ASSIGNED_CONTEXT((#975,#977,#978))
REPRESENTATION_CONTEXT('','3D')
);
#974=(
GEOMETRIC_REPRESENTATION_CONTEXT(3)
GLOBAL_UNCERTAINTY_ASSIGNED_CONTEXT((#968))
GLOBAL_UNIT_ASSIGNED_CONTEXT((#975,#977,#978))
REPRESENTATION_CONTEXT('','3D')
);
#975=(
LENGTH_UNIT()
NAMED_UNIT(*)
SI_UNIT(.MILLI.,.METRE.)
);
#976=(
LENGTH_UNIT()
NAMED_UNIT(*)
SI_UNIT(.CENTI.,.METRE.)
);
#977=(
NAMED_UNIT(*)
PLANE_ANGLE_UNIT()
SI_UNIT($,.RADIAN.)
);
#978=(
NAMED_UNIT(*)
SI_UNIT($,.STERADIAN.)
SOLID_ANGLE_UNIT()
);
#979=SHAPE_DEFINITION_REPRESENTATION(#984,#993);
#980=SHAPE_DEFINITION_REPRESENTATION(#985,#994);
#981=SHAPE_DEFINITION_REPRESENTATION(#986,#995);
#982=SHAPE_DEFINITION_REPRESENTATION(#987,#996);
#983=SHAPE_DEFINITION_REPRESENTATION(#988,#997);
#984=PRODUCT_DEFINITION_SHAPE('',$,#999);
#985=PRODUCT_DEFINITION_SHAPE('',$,#1000);
#986=PRODUCT_DEFINITION_SHAPE('',$,#1001);
#987=PRODUCT_DEFINITION_SHAPE('',$,#1002);
#988=PRODUCT_DEFINITION_SHAPE('',$,#1003);
#989=PRODUCT_DEFINITION_SHAPE($,$,#27);
#990=PRODUCT_DEFINITION_SHAPE($,$,#28);
#991=PRODUCT_DEFINITION_SHAPE($,$,#29);
#992=PRODUCT_DEFINITION_SHAPE($,$,#30);
#993=SHAPE_REPRESENTATION('',(#532,#601,#602,#603,#604),#969);
#994=SHAPE_REPRESENTATION('',(#533),#970);
#995=SHAPE_REPRESENTATION('',(#554),#971);
#996=SHAPE_REPRESENTATION('',(#563),#972);
#997=SHAPE_REPRESENTATION('',(#592),#973);
#998=PRODUCT_DEFINITION_CONTEXT('part definition',#1015,'design');
#999=PRODUCT_DEFINITION('UF7313','UF7319',#1004,#998);
#1000=PRODUCT_DEFINITION('Part5','Shank',#1005,#998);
#1001=PRODUCT_DEFINITION('disk','disk19',#1006,#998);
#1002=PRODUCT_DEFINITION('CNS 9671 - M1.4 x 4','CNS 9671 - M1.4 x 4',#1007,
#998);
#1003=PRODUCT_DEFINITION('ISO 7091 - ST 1.6 - 100 HV',
'ISO 7091 - ST 1.6 - 100 HV',#1008,#998);
#1004=PRODUCT_DEFINITION_FORMATION('',$,#1017);
#1005=PRODUCT_DEFINITION_FORMATION('',$,#1018);
#1006=PRODUCT_DEFINITION_FORMATION('',$,#1019);
#1007=PRODUCT_DEFINITION_FORMATION('',$,#1020);
#1008=PRODUCT_DEFINITION_FORMATION('',$,#1021);
#1009=PRODUCT_RELATED_PRODUCT_CATEGORY('UF7319','UF7319',(#1017));
#1010=PRODUCT_RELATED_PRODUCT_CATEGORY('Shank','Shank',(#1018));
#1011=PRODUCT_RELATED_PRODUCT_CATEGORY('disk19','disk19',(#1019));
#1012=PRODUCT_RELATED_PRODUCT_CATEGORY('CNS 9671 - M1.4 x 4',
'CNS 9671 - M1.4 x 4',(#1020));
#1013=PRODUCT_RELATED_PRODUCT_CATEGORY('ISO 7091 - ST 1.6 - 100 HV',
'ISO 7091 - ST 1.6 - 100 HV',(#1021));
#1014=APPLICATION_PROTOCOL_DEFINITION('international standard',
'automotive_design',2009,#1015);
#1015=APPLICATION_CONTEXT(
'Core Data for Automotive Mechanical Design Process');
#1016=PRODUCT_CONTEXT('part definition',#1015,'mechanical');
#1017=PRODUCT('UF7313','UF7319',$,(#1016));
#1018=PRODUCT('Part5','Shank',$,(#1016));
#1019=PRODUCT('disk','disk19',$,(#1016));
#1020=PRODUCT('CNS 9671 - M1.4 x 4','CNS 9671 - M1.4 x 4',
'Slotted Pan Head Screw',(#1016));
#1021=PRODUCT('ISO 7091 - ST 1.6 - 100 HV','ISO 7091 - ST 1.6 - 100 HV',
'Plain washers - Normal series - Product grade C',(#1016));
#1022=PRESENTATION_STYLE_ASSIGNMENT((#1028));
#1023=PRESENTATION_STYLE_ASSIGNMENT((#1029));
#1024=PRESENTATION_STYLE_ASSIGNMENT((#1030));
#1025=PRESENTATION_STYLE_ASSIGNMENT((#1031));
#1026=PRESENTATION_STYLE_ASSIGNMENT((#1032));
#1027=PRESENTATION_STYLE_ASSIGNMENT((NULL_STYLE(.NULL.)));
#1028=SURFACE_STYLE_USAGE(.BOTH.,#1041);
#1029=SURFACE_STYLE_USAGE(.BOTH.,#1042);
#1030=SURFACE_STYLE_USAGE(.BOTH.,#1043);
#1031=SURFACE_STYLE_USAGE(.BOTH.,#1044);
#1032=SURFACE_STYLE_USAGE(.BOTH.,#1045);
#1033=SURFACE_STYLE_RENDERING_WITH_PROPERTIES($,#1061,(#1037));
#1034=SURFACE_STYLE_RENDERING_WITH_PROPERTIES($,#1062,(#1038));
#1035=SURFACE_STYLE_RENDERING_WITH_PROPERTIES($,#1063,(#1039));
#1036=SURFACE_STYLE_RENDERING_WITH_PROPERTIES($,#1064,(#1040));
#1037=SURFACE_STYLE_TRANSPARENT(0.);
#1038=SURFACE_STYLE_TRANSPARENT(0.);
#1039=SURFACE_STYLE_TRANSPARENT(0.);
#1040=SURFACE_STYLE_TRANSPARENT(0.);
#1041=SURFACE_SIDE_STYLE('',(#1046,#1033));
#1042=SURFACE_SIDE_STYLE('',(#1047,#1034));
#1043=SURFACE_SIDE_STYLE('',(#1048,#1035));
#1044=SURFACE_SIDE_STYLE('',(#1049,#1036));
#1045=SURFACE_SIDE_STYLE('',(#1050));
#1046=SURFACE_STYLE_FILL_AREA(#1051);
#1047=SURFACE_STYLE_FILL_AREA(#1052);
#1048=SURFACE_STYLE_FILL_AREA(#1053);
#1049=SURFACE_STYLE_FILL_AREA(#1054);
#1050=SURFACE_STYLE_FILL_AREA(#1055);
#1051=FILL_AREA_STYLE('',(#1056));
#1052=FILL_AREA_STYLE('',(#1057));
#1053=FILL_AREA_STYLE('',(#1058));
#1054=FILL_AREA_STYLE('',(#1059));
#1055=FILL_AREA_STYLE('',(#1060));
#1056=FILL_AREA_STYLE_COLOUR('',#1061);
#1057=FILL_AREA_STYLE_COLOUR('',#1062);
#1058=FILL_AREA_STYLE_COLOUR('',#1063);
#1059=FILL_AREA_STYLE_COLOUR('',#1064);
#1060=FILL_AREA_STYLE_COLOUR('',#1065);
#1061=COLOUR_RGB('',0.745098039215686,0.737254901960784,0.729411764705882);
#1062=COLOUR_RGB('',0.250980392156863,0.250980392156863,0.250980392156863);
#1063=COLOUR_RGB('',0.862745098039216,0.823529411764706,0.541176470588235);
#1064=COLOUR_RGB('',0.745098039215686,0.737254901960784,0.729411764705882);
#1065=COLOUR_RGB('',0.301960784313725,0.305882352941176,0.290196078431373);
ENDSEC;
END-ISO-10303-21;
